# xmcd
# 
# Track frame offsets:
#     150
#     33872
#     60727
#     78027
#     101867
#     128840
#     153617
#     184877
# 
# Disc length: 2735
# 
# Revision: 2
# Processed by: cddbd v1.5.2PL0 Copyright (c) Steve Scherf et al.
# Submitted via: fre:ac v1.0.17
# 
DISCID=620aad08
DTITLE=Vangelis - Antarctica (1983)
DYEAR=1983
DGENRE=Electronic
TTITLE0=Vangelis - Antarctica 01 Theme From Antarctica
TTITLE1=Vangelis - Antarctica 02 Antarctic Echos
TTITLE2=Vangelis - Antarctica 03 Kinematic
TTITLE3=Vangelis - Antarctica 04 Song Of White
TTITLE4=Vangelis - Antarctica 05 Life Of Antarctica
TTITLE5=Vangelis - Antarctica 06 Memory Of Antarctica
TTITLE6=Vangelis - Antarctica 07 Other Side Of Antartica
TTITLE7=Vangelis - Antarctica 08 Deliverance
EXTD=YEAR: 1983
EXTT0=
EXTT1=
EXTT2=
EXTT3=
EXTT4=
EXTT5=
EXTT6=
EXTT7=
PLAYORDER=
